<svg width="21" height="19" viewBox="0 0 21 19" fill="none" xmlns="http://www.w3.org/2000/svg">
<path d="M10.125 7.48888V17.2222V7.48888ZM10.125 7.48888C10.125 5.21756 10.125 4.0819 9.68293 3.21437C9.29411 2.45127 8.67371 1.83085 7.91062 1.44202C7.04308 1 5.90743 1 3.63611 1H2.62222C2.05439 1 1.77047 1 1.55359 1.1105C1.36282 1.20772 1.20772 1.36282 1.1105 1.55359C1 1.77047 1 2.05439 1 2.62222V13.5722C1 14.1401 1 14.424 1.1105 14.6408C1.20772 14.8317 1.36282 14.9867 1.55359 15.0839C1.77047 15.1944 2.05439 15.1944 2.62222 15.1944H5.60982C6.15751 15.1944 6.43136 15.1944 6.69616 15.2417C6.93119 15.2835 7.16048 15.3529 7.37929 15.4485C7.6258 15.5561 7.85365 15.708 8.30932 16.0118L10.125 17.2222M10.125 7.48888C10.125 5.21756 10.125 4.0819 10.567 3.21437C10.9559 2.45127 11.5763 1.83085 12.3393 1.44202C13.2069 1 14.3426 1 16.6139 1H17.6278C18.1956 1 18.4795 1 18.6964 1.1105C18.8872 1.20772 19.0422 1.36282 19.1395 1.55359C19.25 1.77047 19.25 2.05439 19.25 2.62222V13.5722C19.25 14.1401 19.25 14.424 19.1395 14.6408C19.0422 14.8317 18.8872 14.9867 18.6964 15.0839C18.4795 15.1944 18.1956 15.1944 17.6278 15.1944H14.6401C14.0924 15.1944 13.8186 15.1944 13.5539 15.2417C13.3187 15.2835 13.0895 15.3529 12.8707 15.4485C12.6242 15.5561 12.3963 15.708 11.9407 16.0118L10.125 17.2222" fill="white"/>
<path d="M10.125 7.48888V17.2222M10.125 7.48888C10.125 5.21756 10.125 4.0819 9.68293 3.21437C9.29411 2.45127 8.67371 1.83085 7.91062 1.44202C7.04308 1 5.90743 1 3.63611 1H2.62222C2.05439 1 1.77047 1 1.55359 1.1105C1.36282 1.20772 1.20772 1.36282 1.1105 1.55359C1 1.77047 1 2.05439 1 2.62222V13.5722C1 14.1401 1 14.424 1.1105 14.6408C1.20772 14.8317 1.36282 14.9867 1.55359 15.0839C1.77047 15.1944 2.05439 15.1944 2.62222 15.1944H5.60982C6.15751 15.1944 6.43136 15.1944 6.69616 15.2417C6.93119 15.2835 7.16048 15.3529 7.37929 15.4485C7.6258 15.5561 7.85365 15.708 8.30932 16.0118L10.125 17.2222M10.125 7.48888C10.125 5.21756 10.125 4.0819 10.567 3.21437C10.9559 2.45127 11.5763 1.83085 12.3393 1.44202C13.2069 1 14.3426 1 16.6139 1H17.6278C18.1956 1 18.4795 1 18.6964 1.1105C18.8872 1.20772 19.0422 1.36282 19.1395 1.55359C19.25 1.77047 19.25 2.05439 19.25 2.62222V13.5722C19.25 14.1401 19.25 14.424 19.1395 14.6408C19.0422 14.8317 18.8872 14.9867 18.6964 15.0839C18.4795 15.1944 18.1956 15.1944 17.6278 15.1944H14.6401C14.0924 15.1944 13.8186 15.1944 13.5539 15.2417C13.3187 15.2835 13.0895 15.3529 12.8707 15.4485C12.6242 15.5561 12.3963 15.708 11.9407 16.0118L10.125 17.2222" stroke="black" stroke-width="2" stroke-linecap="round" stroke-linejoin="round"/>
</svg>
